<?xml version="1.0" encoding="utf-8"?>
<!-- Generator: Adobe Illustrator 26.1.0, SVG Export Plug-In . SVG Version: 6.00 Build 0)  -->
<svg version="1.1" id="Layer_1" xmlns="http://www.w3.org/2000/svg" xmlns:xlink="http://www.w3.org/1999/xlink" x="0px" y="0px"
	 viewBox="0 0 298.86 210.23" style="enable-background:new 0 0 298.86 210.23;" xml:space="preserve">
<style type="text/css">
	.st0{fill:#E3371E;stroke:#000000;stroke-width:3;stroke-miterlimit:10;}
	.st1{stroke:#000000;stroke-width:3;stroke-miterlimit:10;}
</style>
<g>
	<path class="st0" d="M221.26,168.68H46.92c-15.87,0-28.74-12.87-28.74-28.74V46.28c0-15.87,12.87-28.74,28.74-28.74h174.34
		c15.87,0,28.74,12.87,28.74,28.74v93.66C250,155.82,237.13,168.68,221.26,168.68z"/>
	<path class="st1" d="M221.26,169.18H46.92c-16.12,0-29.24-13.12-29.24-29.24V46.28c0-16.12,13.12-29.24,29.24-29.24h174.34
		c16.12,0,29.24,13.12,29.24,29.24v93.66C250.5,156.07,237.38,169.18,221.26,169.18z M46.92,18.05c-15.57,0-28.24,12.67-28.24,28.24
		v93.66c0,15.57,12.67,28.24,28.24,28.24h174.34c15.57,0,28.24-12.67,28.24-28.24V46.28c0-15.57-12.67-28.24-28.24-28.24H46.92z"/>
</g>
<g>
	<path class="st0" d="M254.22,197.16H79.87c-15.87,0-28.74-12.87-28.74-28.74V74.76c0-15.87,12.87-28.74,28.74-28.74h174.34
		c15.87,0,28.74,12.87,28.74,28.74v93.66C282.95,184.29,270.09,197.16,254.22,197.16z"/>
	<path class="st1" d="M254.22,197.66H79.87c-16.12,0-29.24-13.12-29.24-29.24V74.76c0-16.12,13.12-29.24,29.24-29.24h174.34
		c16.12,0,29.24,13.12,29.24,29.24v93.66C283.45,184.54,270.34,197.66,254.22,197.66z M79.87,46.52
		c-15.57,0-28.24,12.67-28.24,28.24v93.66c0,15.57,12.67,28.24,28.24,28.24h174.34c15.57,0,28.24-12.67,28.24-28.24V74.76
		c0-15.57-12.67-28.24-28.24-28.24H79.87z"/>
</g>
<rect x="51.64" y="74.76" class="st1" width="231.82" height="22.97"/>
</svg>
