<?xml version="1.0" encoding="utf-8"?>
<!-- Generator: Adobe Illustrator 26.1.0, SVG Export Plug-In . SVG Version: 6.00 Build 0)  -->
<svg version="1.1" id="Layer_1" xmlns="http://www.w3.org/2000/svg" xmlns:xlink="http://www.w3.org/1999/xlink" x="0px" y="0px"
	 viewBox="0 0 268.78 183.62" style="enable-background:new 0 0 268.78 183.62;" xml:space="preserve">
<style type="text/css">
	.st0{fill:#E3371E;stroke:#151F30;stroke-width:3;stroke-miterlimit:10;}
	.st1{fill:#151F30;stroke:#151F30;stroke-width:3;stroke-miterlimit:10;}
</style>
<g>
	<path class="st0" d="M205.08,153.14H30.74C14.87,153.14,2,140.27,2,124.4V30.74C2,14.87,14.87,2,30.74,2h174.34
		c15.87,0,28.74,12.87,28.74,28.74v93.66C233.82,140.28,220.95,153.14,205.08,153.14z"/>
	<path class="st1" d="M205.08,153.64H30.74c-16.12,0-29.24-13.12-29.24-29.24V30.74C1.5,14.62,14.62,1.5,30.74,1.5h174.34
		c16.12,0,29.24,13.12,29.24,29.24v93.66C234.32,140.53,221.2,153.64,205.08,153.64z M30.74,2.51C15.17,2.51,2.5,15.18,2.5,30.75
		v93.66c0,15.57,12.67,28.24,28.24,28.24h174.34c15.57,0,28.24-12.67,28.24-28.24V30.74c0-15.57-12.67-28.24-28.24-28.24H30.74V2.51
		z"/>
</g>
<g>
	<path class="st0" d="M238.04,181.62H63.69c-15.87,0-28.74-12.87-28.74-28.74V59.22c0-15.87,12.87-28.74,28.74-28.74h174.34
		c15.87,0,28.74,12.87,28.74,28.74v93.66C266.77,168.75,253.91,181.62,238.04,181.62z"/>
	<path class="st1" d="M238.04,182.12H63.69c-16.12,0-29.24-13.12-29.24-29.24V59.22c0-16.12,13.12-29.24,29.24-29.24h174.34
		c16.12,0,29.24,13.12,29.24,29.24v93.66C267.27,169,254.16,182.12,238.04,182.12z M63.69,30.98c-15.57,0-28.24,12.67-28.24,28.24
		v93.66c0,15.57,12.67,28.24,28.24,28.24h174.34c15.57,0,28.24-12.67,28.24-28.24V59.22c0-15.57-12.67-28.24-28.24-28.24
		C238.03,30.98,63.69,30.98,63.69,30.98z"/>
</g>
<rect x="35.46" y="59.22" class="st1" width="231.82" height="22.97"/>
</svg>
