<?xml version="1.0" encoding="utf-8"?>
<!-- Generator: Adobe Illustrator 26.1.0, SVG Export Plug-In . SVG Version: 6.00 Build 0)  -->
<svg version="1.1" id="Layer_2_00000078729304063705844640000017792453132605260689_"
	 xmlns="http://www.w3.org/2000/svg" xmlns:xlink="http://www.w3.org/1999/xlink" x="0px" y="0px" viewBox="0 0 265.43 138.35"
	 style="enable-background:new 0 0 265.43 138.35;" xml:space="preserve">
<style type="text/css">
	.st0{fill:#E3371E;stroke:#151F30;stroke-width:3;stroke-miterlimit:10;}
	.st1{fill:#E3371E;}
	.st2{fill:none;stroke:#151F30;stroke-width:3;stroke-miterlimit:10;}
</style>
<g>
	<path class="st0" d="M1.52,47.48h33.04c0,0,7.65-1.16,6.89,5.95c-0.26,3.05-0.26,34.83-0.13,56.16c0.13,11.03,0.13,19.3,0.13,19.3
		s-0.51,5.22-4.59,5.22s-30.87,0-30.87,0H2.41L1.52,47.48z"/>
	<path class="st1" d="M41.32,109.59"/>
	<path class="st0" d="M106.12,136.58l-64.68-26.99l0.13-43.53c0,0,24.36-11.17,32.27-5.66s10.08,5.22,14.93,13.93
		c4.85,8.71,4.34,4.35,4.98,5.22c0.64,0.87,14.54-2.76,21.3,2.18c0,0,4.08,9.14,1.15,16.11c0,0,8.42-0.73,11.48-6.97
		c3.06-6.24,8.8-21.77,20.16-19.3c11.23,2.47,11.48,12.33,11.48,12.33L106.12,136.58z"/>
	<path class="st2" d="M85.33,100.59c0,0,25.39,4.21,30.87-2.9"/>
	<path class="st0" d="M263.92,90.72h-33.04c0,0-7.65,1.16-6.89-5.95c0.26-3.05,0.13-34.83,0.13-56.16
		c-0.13-11.03-0.13-19.3-0.13-19.3s0.51-5.22,4.59-5.22c4.08,0,30.87,0,30.87,0h3.57L263.92,90.72z"/>
	<path class="st1" d="M223.99,28.62"/>
	<path class="st0" d="M159.19,1.77l64.68,26.99l-0.13,43.53c0,0-24.36,11.17-32.27,5.8c-7.91-5.37-10.08-5.22-14.93-13.93
		c-4.85-8.71-4.34-4.35-4.98-5.22c-0.77-0.87-14.54,2.76-21.3-2.18c0,0-4.08-9.14-1.15-16.11c0,0-8.42,0.73-11.48,6.97
		s-8.8,21.77-20.16,19.3c-11.35-2.47-11.48-12.19-11.48-12.19L159.19,1.77z"/>
	<path class="st2" d="M180.11,37.61c0,0-25.39-4.21-30.87,2.9"/>
</g>
</svg>
