<?xml version="1.0" encoding="utf-8"?>
<!-- Generator: Adobe Illustrator 26.1.0, SVG Export Plug-In . SVG Version: 6.00 Build 0)  -->
<svg version="1.1" id="Layer_1" xmlns="http://www.w3.org/2000/svg" xmlns:xlink="http://www.w3.org/1999/xlink" x="0px" y="0px"
	 viewBox="0 0 196.55 208.62" style="enable-background:new 0 0 196.55 208.62;" xml:space="preserve">
<style type="text/css">
	.st0{fill:#151F30;stroke:none;stroke-miterlimit:10;}
	.st1{fill:#103778;}
	.st2{fill:none;stroke:none;stroke-miterlimit:10;}
</style>
<ellipse transform="matrix(0.6312 -0.7757 0.7757 0.6312 -44.437 117.513)" class="st0" cx="101.34" cy="105.48" rx="107.57" ry="67.1"/>
<g>
	
		<ellipse transform="matrix(0.6312 -0.7757 0.7757 0.6312 -67.9117 111.7893)" class="st1" cx="83.59" cy="127.3" rx="6.13" ry="16.43"/>
	
		<ellipse transform="matrix(0.6312 -0.7757 0.7757 0.6312 -67.9117 111.7893)" class="st2" cx="83.59" cy="127.3" rx="6.13" ry="16.43"/>
</g>
<g>
	
		<ellipse transform="matrix(0.6312 -0.7757 0.7757 0.6312 -20.5147 122.5624)" class="st1" cx="118.61" cy="82.85" rx="6.13" ry="16.43"/>
	
		<ellipse transform="matrix(0.6312 -0.7757 0.7757 0.6312 -20.5147 122.5624)" class="st2" cx="118.61" cy="82.85" rx="6.13" ry="16.43"/>
</g>
<g>
	
		<ellipse transform="matrix(0.6312 -0.7757 0.7757 0.6312 -44.8585 116.6267)" class="st1" cx="100.2" cy="105.48" rx="6.13" ry="16.43"/>
	
		<ellipse transform="matrix(0.6312 -0.7757 0.7757 0.6312 -44.8585 116.6267)" class="st2" cx="100.2" cy="105.48" rx="6.13" ry="16.43"/>
</g>
</svg>
