<?xml version="1.0" encoding="utf-8"?>
<!-- Generator: Adobe Illustrator 26.1.0, SVG Export Plug-In . SVG Version: 6.00 Build 0)  -->
<svg version="1.1" id="Layer_2_00000078729304063705844640000017792453132605260689_"
	 xmlns="http://www.w3.org/2000/svg" xmlns:xlink="http://www.w3.org/1999/xlink" x="0px" y="0px" viewBox="0 0 236.6 153.9"
	 style="enable-background:new 0 0 236.6 153.9;" xml:space="preserve">
<style type="text/css">
	.st0{fill:#E3371E;stroke:#151F30;stroke-width:3;stroke-miterlimit:10;}
	.st1{fill:#E3371E;}
	.st2{fill:none;stroke:#151F30;stroke-width:3;stroke-miterlimit:10;}
</style>
<g>
	<path class="st0" d="M12.9,59.5h25.9c0,0,6-0.8,5.4,4.1c-0.2,2.1-0.2,24-0.1,38.7c0.1,7.6,0.1,13.3,0.1,13.3s-0.4,3.6-3.6,3.6
		s-24.2,0-24.2,0h-2.8L12.9,59.5z"/>
	<path class="st1" d="M44.1,102.3"/>
	<path class="st0" d="M94.9,120.9l-50.7-18.6l0.1-30c0,0,19.1-7.7,25.3-3.9S77.5,72,81.3,78c3.8,6,3.4,3,3.9,3.6s11.4-1.9,16.7,1.5
		c0,0,3.2,6.3,0.9,11.1c0,0,6.6-0.5,9-4.8s6.9-15,15.8-13.3c8.8,1.7,9,8.5,9,8.5L94.9,120.9z"/>
	<path class="st2" d="M78.6,96.1c0,0,19.9,2.9,24.2-2"/>
	<path class="st0" d="M218.6,89.3h-25.9c0,0-6,0.8-5.4-4.1c0.2-2.1,0.1-24,0.1-38.7c-0.1-7.6-0.1-13.3-0.1-13.3s0.4-3.6,3.6-3.6
		s24.2,0,24.2,0h2.8L218.6,89.3z"/>
	<path class="st1" d="M187.3,46.5"/>
	<path class="st0" d="M136.5,28l50.7,18.6l-0.1,30c0,0-19.1,7.7-25.3,4s-7.9-3.6-11.7-9.6s-3.4-3-3.9-3.6
		c-0.6-0.6-11.4,1.9-16.7-1.5c0,0-3.2-6.3-0.9-11.1c0,0-6.6,0.5-9,4.8s-6.9,15-15.8,13.3s-9-8.4-9-8.4L136.5,28z"/>
	<path class="st2" d="M152.9,52.7c0,0-19.9-2.9-24.2,2"/>
</g>
</svg>
