<?xml version="1.0" encoding="utf-8"?>
<!-- Generator: Adobe Illustrator 26.1.0, SVG Export Plug-In . SVG Version: 6.00 Build 0)  -->
<svg version="1.1" id="Layer_2" xmlns="http://www.w3.org/2000/svg" xmlns:xlink="http://www.w3.org/1999/xlink" x="0px" y="0px"
	 viewBox="0 0 1920 1080" style="enable-background:new 0 0 1920 1080;" xml:space="preserve">
<style type="text/css">
	.st0{fill:none;stroke:#000000;stroke-miterlimit:10;}
	.st1{fill:#FFFFFF;}
</style>
<g>
	<path class="st0" d="M1261.53,613.28h25.9c0,0,6.01-0.75,5.44,4.13c-0.24,2.1-0.15,23.97-0.06,38.67c0.05,7.63,0.1,13.33,0.1,13.33
		s-0.41,3.57-3.6,3.57c-3.19,0-24.21,0-24.21,0h-2.82L1261.53,613.28z"/>
	<path class="st1" d="M1292.82,656.08"/>
	<path class="st0" d="M1343.56,674.66l-50.74-18.58l0.1-30.03c0,0,19.05-7.7,25.27-3.94s7.91,3.57,11.67,9.57
		c3.75,6.01,3.38,3,3.94,3.57s11.45-1.88,16.7,1.5c0,0,3.19,6.29,0.94,11.12c0,0,6.57-0.46,9.01-4.76s6.95-15,15.77-13.31
		c8.82,1.69,9.01,8.45,9.01,8.45L1343.56,674.66z"/>
	<path class="st0" d="M1327.23,649.88c0,0,19.9,2.91,24.21-2.02"/>
	<g>
		<path class="st0" d="M1467.24,643.05l-25.9,0.01c0,0-6.01,0.75-5.44-4.13c0.24-2.11,0.14-23.97,0.05-38.67
			c-0.05-7.63-0.1-13.33-0.1-13.33s0.41-3.57,3.6-3.57c3.19,0,24.21-0.01,24.21-0.01l2.82,0L1467.24,643.05z"/>
		<path class="st1" d="M1435.94,600.26"/>
		<path class="st0" d="M1385.2,581.7l50.74,18.57l-0.09,30.03c0,0-19.05,7.7-25.27,3.95c-6.22-3.75-7.91-3.56-11.67-9.57
			c-3.76-6.01-3.38-3-3.94-3.57c-0.56-0.56-11.45,1.88-16.7-1.5c0,0-3.2-6.29-0.94-11.12c0,0-6.57,0.47-9.01,4.76
			c-2.44,4.3-6.94,15-15.76,13.31s-9.01-8.44-9.01-8.44L1385.2,581.7z"/>
		<path class="st0" d="M1401.53,606.47c0,0-19.9-2.9-24.21,2.02"/>
	</g>
</g>
</svg>
